<mxfile host="Electron" modified="2023-05-09T10:36:51.650Z" agent="Mozilla/5.0 (Windows NT 10.0; Win64; x64) AppleWebKit/537.36 (KHTML, like Gecko) draw.io/21.2.8 Chrome/112.0.5615.165 Electron/24.2.0 Safari/537.36" etag="fKLIp0wCdko2BQUqe_Se" version="21.2.8" type="device">
  <diagram name="Page-1" id="7ZvuEQ80qFv35ahoECpq">
    <mxGraphModel dx="2551" dy="1908" grid="1" gridSize="10" guides="1" tooltips="1" connect="1" arrows="1" fold="1" page="1" pageScale="1" pageWidth="850" pageHeight="1100" math="0" shadow="0">
      <root>
        <mxCell id="0" />
        <mxCell id="1" parent="0" />
        <mxCell id="mjIF9ZXAO5rnZLR19kHG-1" value="" style="shape=umlLifeline;perimeter=lifelinePerimeter;whiteSpace=wrap;html=1;container=1;dropTarget=0;collapsible=0;recursiveResize=0;outlineConnect=0;portConstraint=eastwest;newEdgeStyle={&quot;edgeStyle&quot;:&quot;elbowEdgeStyle&quot;,&quot;elbow&quot;:&quot;vertical&quot;,&quot;curved&quot;:0,&quot;rounded&quot;:0};participant=umlActor;" parent="1" vertex="1">
          <mxGeometry x="60" y="40" width="20" height="1480" as="geometry" />
        </mxCell>
        <mxCell id="mjIF9ZXAO5rnZLR19kHG-2" value="" style="shape=umlLifeline;perimeter=lifelinePerimeter;whiteSpace=wrap;html=1;container=1;dropTarget=0;collapsible=0;recursiveResize=0;outlineConnect=0;portConstraint=eastwest;newEdgeStyle={&quot;edgeStyle&quot;:&quot;elbowEdgeStyle&quot;,&quot;elbow&quot;:&quot;vertical&quot;,&quot;curved&quot;:0,&quot;rounded&quot;:0};participant=umlBoundary;" parent="1" vertex="1">
          <mxGeometry x="230" y="40" width="50" height="1480" as="geometry" />
        </mxCell>
        <mxCell id="mjIF9ZXAO5rnZLR19kHG-5" value="" style="html=1;points=[];perimeter=orthogonalPerimeter;outlineConnect=0;targetShapes=umlLifeline;portConstraint=eastwest;newEdgeStyle={&quot;edgeStyle&quot;:&quot;elbowEdgeStyle&quot;,&quot;elbow&quot;:&quot;vertical&quot;,&quot;curved&quot;:0,&quot;rounded&quot;:0};" parent="mjIF9ZXAO5rnZLR19kHG-2" vertex="1">
          <mxGeometry x="20" y="100" width="10" height="60" as="geometry" />
        </mxCell>
        <mxCell id="mjIF9ZXAO5rnZLR19kHG-3" value="φαρμακοποιός" style="text;html=1;align=center;verticalAlign=middle;resizable=0;points=[];autosize=1;strokeColor=none;fillColor=none;" parent="1" vertex="1">
          <mxGeometry x="20" width="100" height="30" as="geometry" />
        </mxCell>
        <mxCell id="mjIF9ZXAO5rnZLR19kHG-4" value="αρχική οθόνη" style="text;html=1;align=center;verticalAlign=middle;resizable=0;points=[];autosize=1;strokeColor=none;fillColor=none;" parent="1" vertex="1">
          <mxGeometry x="210" y="3" width="90" height="30" as="geometry" />
        </mxCell>
        <mxCell id="mjIF9ZXAO5rnZLR19kHG-6" value="select_product_management()" style="html=1;verticalAlign=bottom;startArrow=oval;endArrow=block;startSize=8;edgeStyle=elbowEdgeStyle;elbow=vertical;curved=0;rounded=0;" parent="1" source="mjIF9ZXAO5rnZLR19kHG-1" target="mjIF9ZXAO5rnZLR19kHG-5" edge="1">
          <mxGeometry relative="1" as="geometry">
            <mxPoint x="140" y="140" as="sourcePoint" />
            <Array as="points">
              <mxPoint x="110" y="140" />
            </Array>
          </mxGeometry>
        </mxCell>
        <mxCell id="mjIF9ZXAO5rnZLR19kHG-7" value="" style="shape=umlLifeline;perimeter=lifelinePerimeter;whiteSpace=wrap;html=1;container=1;dropTarget=0;collapsible=0;recursiveResize=0;outlineConnect=0;portConstraint=eastwest;newEdgeStyle={&quot;edgeStyle&quot;:&quot;elbowEdgeStyle&quot;,&quot;elbow&quot;:&quot;vertical&quot;,&quot;curved&quot;:0,&quot;rounded&quot;:0};participant=umlBoundary;" parent="1" vertex="1">
          <mxGeometry x="380" y="40" width="50" height="1480" as="geometry" />
        </mxCell>
        <mxCell id="mjIF9ZXAO5rnZLR19kHG-9" value="" style="html=1;points=[];perimeter=orthogonalPerimeter;outlineConnect=0;targetShapes=umlLifeline;portConstraint=eastwest;newEdgeStyle={&quot;edgeStyle&quot;:&quot;elbowEdgeStyle&quot;,&quot;elbow&quot;:&quot;vertical&quot;,&quot;curved&quot;:0,&quot;rounded&quot;:0};" parent="mjIF9ZXAO5rnZLR19kHG-7" vertex="1">
          <mxGeometry x="20" y="160" width="10" height="720" as="geometry" />
        </mxCell>
        <mxCell id="mjIF9ZXAO5rnZLR19kHG-8" value="in stock ή &lt;br&gt;out of stock" style="text;html=1;align=center;verticalAlign=middle;resizable=0;points=[];autosize=1;strokeColor=none;fillColor=none;" parent="1" vertex="1">
          <mxGeometry x="365" y="-15" width="80" height="40" as="geometry" />
        </mxCell>
        <mxCell id="mjIF9ZXAO5rnZLR19kHG-10" value="display_stocks()" style="html=1;verticalAlign=bottom;startArrow=oval;endArrow=block;startSize=8;edgeStyle=elbowEdgeStyle;elbow=vertical;curved=0;rounded=0;" parent="1" source="mjIF9ZXAO5rnZLR19kHG-2" target="mjIF9ZXAO5rnZLR19kHG-9" edge="1">
          <mxGeometry relative="1" as="geometry">
            <mxPoint x="340" y="200" as="sourcePoint" />
            <Array as="points">
              <mxPoint x="290" y="200" />
            </Array>
          </mxGeometry>
        </mxCell>
        <mxCell id="mjIF9ZXAO5rnZLR19kHG-11" value="frame" style="shape=umlFrame;whiteSpace=wrap;html=1;pointerEvents=0;fillColor=#f8cecc;strokeColor=#b85450;" parent="1" vertex="1">
          <mxGeometry x="-20" y="270" width="1400" height="610" as="geometry" />
        </mxCell>
        <mxCell id="mjIF9ZXAO5rnZLR19kHG-12" value="select_stocks()" style="html=1;verticalAlign=bottom;startArrow=oval;startFill=1;endArrow=block;startSize=8;edgeStyle=elbowEdgeStyle;elbow=vertical;curved=0;rounded=0;" parent="1" source="mjIF9ZXAO5rnZLR19kHG-1" target="mjIF9ZXAO5rnZLR19kHG-7" edge="1">
          <mxGeometry x="-0.2209" width="60" relative="1" as="geometry">
            <mxPoint x="170" y="230" as="sourcePoint" />
            <mxPoint x="230" y="230" as="targetPoint" />
            <Array as="points">
              <mxPoint x="190" y="230" />
            </Array>
            <mxPoint x="1" as="offset" />
          </mxGeometry>
        </mxCell>
        <mxCell id="mjIF9ZXAO5rnZLR19kHG-13" value="in stock" style="text;html=1;align=center;verticalAlign=middle;resizable=0;points=[];autosize=1;strokeColor=none;fillColor=none;" parent="1" vertex="1">
          <mxGeometry x="-20" y="298" width="60" height="30" as="geometry" />
        </mxCell>
        <mxCell id="mjIF9ZXAO5rnZLR19kHG-16" value="display_categories()" style="html=1;verticalAlign=bottom;startArrow=oval;endArrow=block;startSize=8;edgeStyle=elbowEdgeStyle;elbow=vertical;curved=0;rounded=0;" parent="1" source="mjIF9ZXAO5rnZLR19kHG-7" target="mjIF9ZXAO5rnZLR19kHG-22" edge="1">
          <mxGeometry x="0.0747" relative="1" as="geometry">
            <mxPoint x="480" y="320" as="sourcePoint" />
            <mxPoint x="530" y="320" as="targetPoint" />
            <Array as="points">
              <mxPoint x="440" y="320" />
            </Array>
            <mxPoint x="1" as="offset" />
          </mxGeometry>
        </mxCell>
        <mxCell id="mjIF9ZXAO5rnZLR19kHG-18" value="select_category()" style="html=1;verticalAlign=bottom;startArrow=oval;startFill=1;endArrow=block;startSize=8;edgeStyle=elbowEdgeStyle;elbow=vertical;curved=0;rounded=0;" parent="1" source="mjIF9ZXAO5rnZLR19kHG-1" target="mjIF9ZXAO5rnZLR19kHG-23" edge="1">
          <mxGeometry x="-0.0726" width="60" relative="1" as="geometry">
            <mxPoint x="225" y="369.5" as="sourcePoint" />
            <mxPoint x="530" y="360" as="targetPoint" />
            <Array as="points">
              <mxPoint x="500" y="360" />
              <mxPoint x="520" y="360" />
            </Array>
            <mxPoint x="1" as="offset" />
          </mxGeometry>
        </mxCell>
        <mxCell id="mjIF9ZXAO5rnZLR19kHG-20" value="" style="shape=umlLifeline;perimeter=lifelinePerimeter;whiteSpace=wrap;html=1;container=1;dropTarget=0;collapsible=0;recursiveResize=0;outlineConnect=0;portConstraint=eastwest;newEdgeStyle={&quot;edgeStyle&quot;:&quot;elbowEdgeStyle&quot;,&quot;elbow&quot;:&quot;vertical&quot;,&quot;curved&quot;:0,&quot;rounded&quot;:0};participant=umlBoundary;" parent="1" vertex="1">
          <mxGeometry x="660" y="40" width="50" height="1480" as="geometry" />
        </mxCell>
        <mxCell id="mjIF9ZXAO5rnZLR19kHG-29" value="" style="html=1;points=[];perimeter=orthogonalPerimeter;outlineConnect=0;targetShapes=umlLifeline;portConstraint=eastwest;newEdgeStyle={&quot;edgeStyle&quot;:&quot;elbowEdgeStyle&quot;,&quot;elbow&quot;:&quot;vertical&quot;,&quot;curved&quot;:0,&quot;rounded&quot;:0};" parent="mjIF9ZXAO5rnZLR19kHG-20" vertex="1">
          <mxGeometry x="20" y="430" width="10" height="60" as="geometry" />
        </mxCell>
        <mxCell id="mjIF9ZXAO5rnZLR19kHG-71" value="" style="html=1;points=[];perimeter=orthogonalPerimeter;outlineConnect=0;targetShapes=umlLifeline;portConstraint=eastwest;newEdgeStyle={&quot;edgeStyle&quot;:&quot;elbowEdgeStyle&quot;,&quot;elbow&quot;:&quot;vertical&quot;,&quot;curved&quot;:0,&quot;rounded&quot;:0};" parent="mjIF9ZXAO5rnZLR19kHG-20" vertex="1">
          <mxGeometry x="20" y="1110" width="10" height="60" as="geometry" />
        </mxCell>
        <mxCell id="mjIF9ZXAO5rnZLR19kHG-22" value="" style="shape=umlLifeline;perimeter=lifelinePerimeter;whiteSpace=wrap;html=1;container=1;dropTarget=0;collapsible=0;recursiveResize=0;outlineConnect=0;portConstraint=eastwest;newEdgeStyle={&quot;edgeStyle&quot;:&quot;elbowEdgeStyle&quot;,&quot;elbow&quot;:&quot;vertical&quot;,&quot;curved&quot;:0,&quot;rounded&quot;:0};participant=umlBoundary;" parent="1" vertex="1">
          <mxGeometry x="520" y="40" width="50" height="1480" as="geometry" />
        </mxCell>
        <mxCell id="mjIF9ZXAO5rnZLR19kHG-23" value="" style="html=1;points=[];perimeter=orthogonalPerimeter;outlineConnect=0;targetShapes=umlLifeline;portConstraint=eastwest;newEdgeStyle={&quot;edgeStyle&quot;:&quot;elbowEdgeStyle&quot;,&quot;elbow&quot;:&quot;vertical&quot;,&quot;curved&quot;:0,&quot;rounded&quot;:0};" parent="mjIF9ZXAO5rnZLR19kHG-22" vertex="1">
          <mxGeometry x="20" y="280" width="10" height="80" as="geometry" />
        </mxCell>
        <mxCell id="mjIF9ZXAO5rnZLR19kHG-63" value="" style="html=1;points=[];perimeter=orthogonalPerimeter;outlineConnect=0;targetShapes=umlLifeline;portConstraint=eastwest;newEdgeStyle={&quot;edgeStyle&quot;:&quot;elbowEdgeStyle&quot;,&quot;elbow&quot;:&quot;vertical&quot;,&quot;curved&quot;:0,&quot;rounded&quot;:0};" parent="mjIF9ZXAO5rnZLR19kHG-22" vertex="1">
          <mxGeometry x="20" y="990" width="10" height="60" as="geometry" />
        </mxCell>
        <mxCell id="mjIF9ZXAO5rnZLR19kHG-24" value="Κατηγορίες Προϊόντων" style="text;html=1;align=center;verticalAlign=middle;resizable=0;points=[];autosize=1;strokeColor=none;fillColor=none;" parent="1" vertex="1">
          <mxGeometry x="475" y="-10" width="140" height="30" as="geometry" />
        </mxCell>
        <mxCell id="mjIF9ZXAO5rnZLR19kHG-26" value="search_instock_products()" style="html=1;verticalAlign=bottom;startArrow=oval;startFill=1;endArrow=block;startSize=8;edgeStyle=elbowEdgeStyle;elbow=vertical;curved=0;rounded=0;" parent="1" source="mjIF9ZXAO5rnZLR19kHG-23" target="mjIF9ZXAO5rnZLR19kHG-38" edge="1">
          <mxGeometry x="-0.2752" width="60" relative="1" as="geometry">
            <mxPoint x="590" y="400" as="sourcePoint" />
            <mxPoint x="650" y="400" as="targetPoint" />
            <Array as="points">
              <mxPoint x="660" y="400" />
            </Array>
            <mxPoint as="offset" />
          </mxGeometry>
        </mxCell>
        <mxCell id="mjIF9ZXAO5rnZLR19kHG-30" value="select_product()" style="html=1;verticalAlign=bottom;startArrow=oval;startFill=1;endArrow=block;startSize=8;edgeStyle=elbowEdgeStyle;elbow=vertical;curved=0;rounded=0;" parent="1" source="mjIF9ZXAO5rnZLR19kHG-1" target="mjIF9ZXAO5rnZLR19kHG-20" edge="1">
          <mxGeometry width="60" relative="1" as="geometry">
            <mxPoint x="630" y="510" as="sourcePoint" />
            <mxPoint x="690" y="510" as="targetPoint" />
            <Array as="points">
              <mxPoint x="550" y="500" />
              <mxPoint x="520" y="490" />
              <mxPoint x="180" y="430" />
            </Array>
          </mxGeometry>
        </mxCell>
        <mxCell id="mjIF9ZXAO5rnZLR19kHG-31" value="προϊόντα κατηγορίας" style="text;html=1;align=center;verticalAlign=middle;resizable=0;points=[];autosize=1;strokeColor=none;fillColor=none;" parent="1" vertex="1">
          <mxGeometry x="630" y="-7" width="130" height="30" as="geometry" />
        </mxCell>
        <mxCell id="mjIF9ZXAO5rnZLR19kHG-32" value="" style="shape=umlLifeline;perimeter=lifelinePerimeter;whiteSpace=wrap;html=1;container=1;dropTarget=0;collapsible=0;recursiveResize=0;outlineConnect=0;portConstraint=eastwest;newEdgeStyle={&quot;edgeStyle&quot;:&quot;elbowEdgeStyle&quot;,&quot;elbow&quot;:&quot;vertical&quot;,&quot;curved&quot;:0,&quot;rounded&quot;:0};participant=umlBoundary;" parent="1" vertex="1">
          <mxGeometry x="820" y="40" width="50" height="1480" as="geometry" />
        </mxCell>
        <mxCell id="mjIF9ZXAO5rnZLR19kHG-35" value="" style="html=1;points=[];perimeter=orthogonalPerimeter;outlineConnect=0;targetShapes=umlLifeline;portConstraint=eastwest;newEdgeStyle={&quot;edgeStyle&quot;:&quot;elbowEdgeStyle&quot;,&quot;elbow&quot;:&quot;vertical&quot;,&quot;curved&quot;:0,&quot;rounded&quot;:0};" parent="mjIF9ZXAO5rnZLR19kHG-32" vertex="1">
          <mxGeometry x="20" y="490" width="10" height="210" as="geometry" />
        </mxCell>
        <mxCell id="mjIF9ZXAO5rnZLR19kHG-33" value="Αύξηση μείωση τιμής,&lt;br&gt;&amp;nbsp;Αύξηση&amp;nbsp; αποθεμάτων,&amp;nbsp;&lt;span style=&quot;border-color: var(--border-color);&quot; lang=&quot;EL&quot;&gt;&amp;nbsp;&lt;br&gt;και Αριθμό πωλήσεων&lt;/span&gt;" style="text;html=1;align=center;verticalAlign=middle;resizable=0;points=[];autosize=1;strokeColor=none;fillColor=none;" parent="1" vertex="1">
          <mxGeometry x="768.75" y="-40" width="150" height="60" as="geometry" />
        </mxCell>
        <mxCell id="mjIF9ZXAO5rnZLR19kHG-34" value="display_options()" style="html=1;verticalAlign=bottom;startArrow=oval;startFill=1;endArrow=block;startSize=8;edgeStyle=elbowEdgeStyle;elbow=vertical;curved=0;rounded=0;" parent="1" source="mjIF9ZXAO5rnZLR19kHG-29" target="mjIF9ZXAO5rnZLR19kHG-32" edge="1">
          <mxGeometry x="-0.0037" width="60" relative="1" as="geometry">
            <mxPoint x="870" y="530" as="sourcePoint" />
            <mxPoint x="850" y="500" as="targetPoint" />
            <Array as="points">
              <mxPoint x="810" y="530" />
            </Array>
            <mxPoint as="offset" />
          </mxGeometry>
        </mxCell>
        <mxCell id="mjIF9ZXAO5rnZLR19kHG-36" value="select_option()" style="html=1;verticalAlign=bottom;startArrow=oval;startFill=1;endArrow=block;startSize=8;edgeStyle=elbowEdgeStyle;elbow=vertical;curved=0;rounded=0;" parent="1" source="mjIF9ZXAO5rnZLR19kHG-1" target="mjIF9ZXAO5rnZLR19kHG-35" edge="1">
          <mxGeometry x="0.0136" width="60" relative="1" as="geometry">
            <mxPoint x="330" y="580" as="sourcePoint" />
            <mxPoint x="850" y="560" as="targetPoint" />
            <Array as="points">
              <mxPoint x="790" y="560" />
              <mxPoint x="830" y="570" />
              <mxPoint x="830" y="520" />
              <mxPoint x="890" y="560" />
            </Array>
            <mxPoint x="1" as="offset" />
          </mxGeometry>
        </mxCell>
        <mxCell id="mjIF9ZXAO5rnZLR19kHG-37" value="frame" style="shape=umlFrame;whiteSpace=wrap;html=1;pointerEvents=0;fillColor=#f8cecc;strokeColor=#b85450;" parent="1" vertex="1">
          <mxGeometry x="590" y="580" width="740" height="280" as="geometry" />
        </mxCell>
        <mxCell id="mjIF9ZXAO5rnZLR19kHG-38" value="" style="shape=umlLifeline;perimeter=lifelinePerimeter;whiteSpace=wrap;html=1;container=1;dropTarget=0;collapsible=0;recursiveResize=0;outlineConnect=0;portConstraint=eastwest;newEdgeStyle={&quot;edgeStyle&quot;:&quot;elbowEdgeStyle&quot;,&quot;elbow&quot;:&quot;vertical&quot;,&quot;curved&quot;:0,&quot;rounded&quot;:0};participant=umlEntity;" parent="1" vertex="1">
          <mxGeometry x="1020" y="40" width="40" height="1480" as="geometry" />
        </mxCell>
        <mxCell id="mjIF9ZXAO5rnZLR19kHG-65" value="" style="html=1;points=[];perimeter=orthogonalPerimeter;outlineConnect=0;targetShapes=umlLifeline;portConstraint=eastwest;newEdgeStyle={&quot;edgeStyle&quot;:&quot;elbowEdgeStyle&quot;,&quot;elbow&quot;:&quot;vertical&quot;,&quot;curved&quot;:0,&quot;rounded&quot;:0};" parent="mjIF9ZXAO5rnZLR19kHG-38" vertex="1">
          <mxGeometry x="15" y="360" width="10" height="750" as="geometry" />
        </mxCell>
        <mxCell id="mjIF9ZXAO5rnZLR19kHG-84" value="" style="html=1;points=[];perimeter=orthogonalPerimeter;outlineConnect=0;targetShapes=umlLifeline;portConstraint=eastwest;newEdgeStyle={&quot;edgeStyle&quot;:&quot;elbowEdgeStyle&quot;,&quot;elbow&quot;:&quot;vertical&quot;,&quot;curved&quot;:0,&quot;rounded&quot;:0};" parent="mjIF9ZXAO5rnZLR19kHG-38" vertex="1">
          <mxGeometry x="15" y="1320" width="10" height="70" as="geometry" />
        </mxCell>
        <mxCell id="mjIF9ZXAO5rnZLR19kHG-39" value="προϊόντα&lt;br style=&quot;border-color: var(--border-color);&quot;&gt;&lt;span style=&quot;&quot;&gt;φαρμακείου&lt;/span&gt;" style="text;html=1;align=center;verticalAlign=middle;resizable=0;points=[];autosize=1;strokeColor=none;fillColor=none;" parent="1" vertex="1">
          <mxGeometry x="995" y="-30" width="90" height="40" as="geometry" />
        </mxCell>
        <mxCell id="mjIF9ZXAO5rnZLR19kHG-40" value="chenge_price()" style="html=1;verticalAlign=bottom;startArrow=oval;startFill=1;endArrow=block;startSize=8;edgeStyle=elbowEdgeStyle;elbow=vertical;curved=0;rounded=0;" parent="1" source="mjIF9ZXAO5rnZLR19kHG-35" edge="1">
          <mxGeometry width="60" relative="1" as="geometry">
            <mxPoint x="1020" y="610" as="sourcePoint" />
            <mxPoint x="1035" y="620" as="targetPoint" />
            <Array as="points">
              <mxPoint x="990" y="620" />
              <mxPoint x="1090" y="610" />
            </Array>
          </mxGeometry>
        </mxCell>
        <mxCell id="mjIF9ZXAO5rnZLR19kHG-42" value="increase_stock()" style="html=1;verticalAlign=bottom;startArrow=oval;startFill=1;endArrow=block;startSize=8;edgeStyle=elbowEdgeStyle;elbow=vertical;curved=0;rounded=0;" parent="1" source="mjIF9ZXAO5rnZLR19kHG-35" target="mjIF9ZXAO5rnZLR19kHG-38" edge="1">
          <mxGeometry width="60" relative="1" as="geometry">
            <mxPoint x="1000" y="670" as="sourcePoint" />
            <mxPoint x="1060" y="670" as="targetPoint" />
            <Array as="points">
              <mxPoint x="1010" y="690" />
              <mxPoint x="1080" y="690" />
              <mxPoint x="1040" y="700" />
              <mxPoint x="1090" y="660" />
            </Array>
          </mxGeometry>
        </mxCell>
        <mxCell id="mjIF9ZXAO5rnZLR19kHG-43" value="" style="shape=umlLifeline;perimeter=lifelinePerimeter;whiteSpace=wrap;html=1;container=1;dropTarget=0;collapsible=0;recursiveResize=0;outlineConnect=0;portConstraint=eastwest;newEdgeStyle={&quot;edgeStyle&quot;:&quot;elbowEdgeStyle&quot;,&quot;elbow&quot;:&quot;vertical&quot;,&quot;curved&quot;:0,&quot;rounded&quot;:0};participant=umlEntity;" parent="1" vertex="1">
          <mxGeometry x="1155" y="40" width="40" height="1480" as="geometry" />
        </mxCell>
        <mxCell id="mjIF9ZXAO5rnZLR19kHG-46" value="" style="html=1;points=[];perimeter=orthogonalPerimeter;outlineConnect=0;targetShapes=umlLifeline;portConstraint=eastwest;newEdgeStyle={&quot;edgeStyle&quot;:&quot;elbowEdgeStyle&quot;,&quot;elbow&quot;:&quot;vertical&quot;,&quot;curved&quot;:0,&quot;rounded&quot;:0};" parent="mjIF9ZXAO5rnZLR19kHG-43" vertex="1">
          <mxGeometry x="15" y="700" width="10" height="60" as="geometry" />
        </mxCell>
        <mxCell id="mjIF9ZXAO5rnZLR19kHG-68" value="" style="html=1;points=[];perimeter=orthogonalPerimeter;outlineConnect=0;targetShapes=umlLifeline;portConstraint=eastwest;newEdgeStyle={&quot;edgeStyle&quot;:&quot;elbowEdgeStyle&quot;,&quot;elbow&quot;:&quot;vertical&quot;,&quot;curved&quot;:0,&quot;rounded&quot;:0};" parent="mjIF9ZXAO5rnZLR19kHG-43" vertex="1">
          <mxGeometry x="15" y="880" width="10" height="110" as="geometry" />
        </mxCell>
        <mxCell id="mjIF9ZXAO5rnZLR19kHG-44" value="παραγγελίες" style="text;html=1;align=center;verticalAlign=middle;resizable=0;points=[];autosize=1;strokeColor=none;fillColor=none;" parent="1" vertex="1">
          <mxGeometry x="1130" y="-15" width="90" height="30" as="geometry" />
        </mxCell>
        <mxCell id="mjIF9ZXAO5rnZLR19kHG-45" value="get_sales()" style="html=1;verticalAlign=bottom;startArrow=oval;startFill=1;endArrow=block;startSize=8;edgeStyle=elbowEdgeStyle;elbow=vertical;curved=0;rounded=0;" parent="1" source="mjIF9ZXAO5rnZLR19kHG-32" target="mjIF9ZXAO5rnZLR19kHG-43" edge="1">
          <mxGeometry x="-0.2038" width="60" relative="1" as="geometry">
            <mxPoint x="1000" y="740" as="sourcePoint" />
            <mxPoint x="1060" y="740" as="targetPoint" />
            <Array as="points">
              <mxPoint x="1140" y="740" />
            </Array>
            <mxPoint x="1" as="offset" />
          </mxGeometry>
        </mxCell>
        <mxCell id="mjIF9ZXAO5rnZLR19kHG-47" value="" style="shape=umlLifeline;perimeter=lifelinePerimeter;whiteSpace=wrap;html=1;container=1;dropTarget=0;collapsible=0;recursiveResize=0;outlineConnect=0;portConstraint=eastwest;newEdgeStyle={&quot;edgeStyle&quot;:&quot;elbowEdgeStyle&quot;,&quot;elbow&quot;:&quot;vertical&quot;,&quot;curved&quot;:0,&quot;rounded&quot;:0};participant=umlBoundary;" parent="1" vertex="1">
          <mxGeometry x="1275" y="40" width="50" height="1480" as="geometry" />
        </mxCell>
        <mxCell id="mjIF9ZXAO5rnZLR19kHG-50" value="" style="html=1;points=[];perimeter=orthogonalPerimeter;outlineConnect=0;targetShapes=umlLifeline;portConstraint=eastwest;newEdgeStyle={&quot;edgeStyle&quot;:&quot;elbowEdgeStyle&quot;,&quot;elbow&quot;:&quot;vertical&quot;,&quot;curved&quot;:0,&quot;rounded&quot;:0};" parent="mjIF9ZXAO5rnZLR19kHG-47" vertex="1">
          <mxGeometry x="20" y="760" width="10" height="40" as="geometry" />
        </mxCell>
        <mxCell id="mjIF9ZXAO5rnZLR19kHG-51" value="" style="shape=umlDestroy;whiteSpace=wrap;html=1;strokeWidth=3;targetShapes=umlLifeline;" parent="mjIF9ZXAO5rnZLR19kHG-47" vertex="1">
          <mxGeometry x="10" y="780" width="30" height="30" as="geometry" />
        </mxCell>
        <mxCell id="mjIF9ZXAO5rnZLR19kHG-48" value="αρηθμός &lt;br&gt;πωλήσεων" style="text;html=1;align=center;verticalAlign=middle;resizable=0;points=[];autosize=1;strokeColor=none;fillColor=none;" parent="1" vertex="1">
          <mxGeometry x="1270" y="-20" width="80" height="40" as="geometry" />
        </mxCell>
        <mxCell id="mjIF9ZXAO5rnZLR19kHG-49" value="display_sales()" style="html=1;verticalAlign=bottom;startArrow=oval;startFill=1;endArrow=block;startSize=8;edgeStyle=elbowEdgeStyle;elbow=vertical;curved=0;rounded=0;" parent="1" source="mjIF9ZXAO5rnZLR19kHG-46" target="mjIF9ZXAO5rnZLR19kHG-47" edge="1">
          <mxGeometry width="60" relative="1" as="geometry">
            <mxPoint x="1260" y="800" as="sourcePoint" />
            <mxPoint x="1320" y="800" as="targetPoint" />
            <Array as="points">
              <mxPoint x="1270" y="800" />
              <mxPoint x="1300" y="800" />
            </Array>
          </mxGeometry>
        </mxCell>
        <mxCell id="mjIF9ZXAO5rnZLR19kHG-52" value="" style="endArrow=none;html=1;rounded=0;entryX=1.001;entryY=0.217;entryDx=0;entryDy=0;entryPerimeter=0;fillColor=#f8cecc;strokeColor=#b85450;exitX=-0.007;exitY=0.214;exitDx=0;exitDy=0;exitPerimeter=0;" parent="1" source="mjIF9ZXAO5rnZLR19kHG-37" target="mjIF9ZXAO5rnZLR19kHG-37" edge="1">
          <mxGeometry width="50" height="50" relative="1" as="geometry">
            <mxPoint x="710" y="640" as="sourcePoint" />
            <mxPoint x="1000" y="760" as="targetPoint" />
            <Array as="points">
              <mxPoint x="770" y="641" />
            </Array>
          </mxGeometry>
        </mxCell>
        <mxCell id="mjIF9ZXAO5rnZLR19kHG-53" value="" style="endArrow=none;html=1;rounded=0;exitX=0;exitY=0.5;exitDx=0;exitDy=0;exitPerimeter=0;entryX=1.007;entryY=0.503;entryDx=0;entryDy=0;entryPerimeter=0;fillColor=#f8cecc;strokeColor=#b85450;" parent="1" source="mjIF9ZXAO5rnZLR19kHG-37" target="mjIF9ZXAO5rnZLR19kHG-37" edge="1">
          <mxGeometry width="50" height="50" relative="1" as="geometry">
            <mxPoint x="850" y="810" as="sourcePoint" />
            <mxPoint x="900" y="760" as="targetPoint" />
          </mxGeometry>
        </mxCell>
        <mxCell id="mjIF9ZXAO5rnZLR19kHG-54" value="change price" style="text;html=1;align=center;verticalAlign=middle;resizable=0;points=[];autosize=1;strokeColor=none;fillColor=none;" parent="1" vertex="1">
          <mxGeometry x="590" y="608" width="90" height="30" as="geometry" />
        </mxCell>
        <mxCell id="mjIF9ZXAO5rnZLR19kHG-55" value="increase stock" style="text;html=1;align=center;verticalAlign=middle;resizable=0;points=[];autosize=1;strokeColor=none;fillColor=none;" parent="1" vertex="1">
          <mxGeometry x="585" y="638" width="100" height="30" as="geometry" />
        </mxCell>
        <mxCell id="mjIF9ZXAO5rnZLR19kHG-56" value="total sales&lt;br&gt;of product" style="text;html=1;align=center;verticalAlign=middle;resizable=0;points=[];autosize=1;strokeColor=none;fillColor=none;" parent="1" vertex="1">
          <mxGeometry x="590" y="723" width="80" height="40" as="geometry" />
        </mxCell>
        <mxCell id="mjIF9ZXAO5rnZLR19kHG-57" value="get_sum_outofstock()" style="html=1;verticalAlign=bottom;startArrow=oval;startFill=1;endArrow=block;startSize=8;edgeStyle=elbowEdgeStyle;elbow=vertical;curved=0;rounded=0;" parent="1" source="mjIF9ZXAO5rnZLR19kHG-9" target="mjIF9ZXAO5rnZLR19kHG-43" edge="1">
          <mxGeometry width="60" relative="1" as="geometry">
            <mxPoint x="610" y="920" as="sourcePoint" />
            <mxPoint x="670" y="920" as="targetPoint" />
            <Array as="points">
              <mxPoint x="490" y="920" />
              <mxPoint x="1070" y="900" />
              <mxPoint x="1100" y="1020" />
              <mxPoint x="1130" y="640" />
            </Array>
          </mxGeometry>
        </mxCell>
        <mxCell id="mjIF9ZXAO5rnZLR19kHG-60" value="out of stock" style="text;html=1;align=center;verticalAlign=middle;resizable=0;points=[];autosize=1;strokeColor=none;fillColor=none;" parent="1" vertex="1">
          <mxGeometry x="-20" y="878" width="80" height="30" as="geometry" />
        </mxCell>
        <mxCell id="mjIF9ZXAO5rnZLR19kHG-62" value="display_categories()" style="html=1;verticalAlign=bottom;endArrow=open;dashed=1;endSize=8;edgeStyle=elbowEdgeStyle;elbow=vertical;curved=0;rounded=0;" parent="1" source="mjIF9ZXAO5rnZLR19kHG-43" target="mjIF9ZXAO5rnZLR19kHG-22" edge="1">
          <mxGeometry x="-0.1904" relative="1" as="geometry">
            <mxPoint x="1035" y="1030" as="sourcePoint" />
            <mxPoint x="880" y="1030" as="targetPoint" />
            <Array as="points">
              <mxPoint x="980" y="1030" />
              <mxPoint x="620" y="1020" />
            </Array>
            <mxPoint as="offset" />
          </mxGeometry>
        </mxCell>
        <mxCell id="mjIF9ZXAO5rnZLR19kHG-64" value="select_category()" style="html=1;verticalAlign=bottom;startArrow=oval;startFill=1;endArrow=block;startSize=8;edgeStyle=elbowEdgeStyle;elbow=vertical;curved=0;rounded=0;" parent="1" source="mjIF9ZXAO5rnZLR19kHG-1" target="mjIF9ZXAO5rnZLR19kHG-63" edge="1">
          <mxGeometry width="60" relative="1" as="geometry">
            <mxPoint x="140" y="1130" as="sourcePoint" />
            <mxPoint x="200" y="1130" as="targetPoint" />
          </mxGeometry>
        </mxCell>
        <mxCell id="mjIF9ZXAO5rnZLR19kHG-66" value="display_products()" style="html=1;verticalAlign=bottom;endArrow=open;dashed=1;endSize=8;edgeStyle=elbowEdgeStyle;elbow=vertical;curved=0;rounded=0;" parent="1" source="mjIF9ZXAO5rnZLR19kHG-65" target="mjIF9ZXAO5rnZLR19kHG-29" edge="1">
          <mxGeometry x="0.0035" relative="1" as="geometry">
            <mxPoint x="980" y="450" as="sourcePoint" />
            <mxPoint x="900" y="450" as="targetPoint" />
            <Array as="points">
              <mxPoint x="983" y="470" />
            </Array>
            <mxPoint as="offset" />
          </mxGeometry>
        </mxCell>
        <mxCell id="mjIF9ZXAO5rnZLR19kHG-69" value="search_outofstock_products()" style="html=1;verticalAlign=bottom;startArrow=oval;startFill=1;endArrow=block;startSize=8;edgeStyle=elbowEdgeStyle;elbow=vertical;curved=0;rounded=0;" parent="1" source="mjIF9ZXAO5rnZLR19kHG-63" target="mjIF9ZXAO5rnZLR19kHG-38" edge="1">
          <mxGeometry width="60" relative="1" as="geometry">
            <mxPoint x="720" y="1090" as="sourcePoint" />
            <mxPoint x="780" y="1090" as="targetPoint" />
            <Array as="points">
              <mxPoint x="900" y="1090" />
            </Array>
          </mxGeometry>
        </mxCell>
        <mxCell id="mjIF9ZXAO5rnZLR19kHG-70" value="display_products()" style="html=1;verticalAlign=bottom;endArrow=open;dashed=1;endSize=8;edgeStyle=elbowEdgeStyle;elbow=vertical;curved=0;rounded=0;" parent="1" source="mjIF9ZXAO5rnZLR19kHG-38" target="mjIF9ZXAO5rnZLR19kHG-20" edge="1">
          <mxGeometry relative="1" as="geometry">
            <mxPoint x="970" y="1140" as="sourcePoint" />
            <mxPoint x="890" y="1140" as="targetPoint" />
            <Array as="points">
              <mxPoint x="1000" y="1150" />
              <mxPoint x="1020" y="1150" />
              <mxPoint x="820" y="1140" />
            </Array>
          </mxGeometry>
        </mxCell>
        <mxCell id="mjIF9ZXAO5rnZLR19kHG-72" value="select_product()" style="html=1;verticalAlign=bottom;startArrow=oval;startFill=1;endArrow=block;startSize=8;edgeStyle=elbowEdgeStyle;elbow=vertical;curved=0;rounded=0;" parent="1" source="mjIF9ZXAO5rnZLR19kHG-1" target="mjIF9ZXAO5rnZLR19kHG-71" edge="1">
          <mxGeometry width="60" relative="1" as="geometry">
            <mxPoint x="190" y="1130" as="sourcePoint" />
            <mxPoint x="250" y="1130" as="targetPoint" />
          </mxGeometry>
        </mxCell>
        <mxCell id="mjIF9ZXAO5rnZLR19kHG-73" value="" style="shape=umlLifeline;perimeter=lifelinePerimeter;whiteSpace=wrap;html=1;container=1;dropTarget=0;collapsible=0;recursiveResize=0;outlineConnect=0;portConstraint=eastwest;newEdgeStyle={&quot;edgeStyle&quot;:&quot;elbowEdgeStyle&quot;,&quot;elbow&quot;:&quot;vertical&quot;,&quot;curved&quot;:0,&quot;rounded&quot;:0};participant=umlEntity;" parent="1" vertex="1">
          <mxGeometry x="1420" y="40" width="40" height="1480" as="geometry" />
        </mxCell>
        <mxCell id="mjIF9ZXAO5rnZLR19kHG-76" value="" style="html=1;points=[];perimeter=orthogonalPerimeter;outlineConnect=0;targetShapes=umlLifeline;portConstraint=eastwest;newEdgeStyle={&quot;edgeStyle&quot;:&quot;elbowEdgeStyle&quot;,&quot;elbow&quot;:&quot;vertical&quot;,&quot;curved&quot;:0,&quot;rounded&quot;:0};" parent="mjIF9ZXAO5rnZLR19kHG-73" vertex="1">
          <mxGeometry x="15" y="1170" width="10" height="50" as="geometry" />
        </mxCell>
        <mxCell id="mjIF9ZXAO5rnZLR19kHG-88" value="" style="html=1;points=[];perimeter=orthogonalPerimeter;outlineConnect=0;targetShapes=umlLifeline;portConstraint=eastwest;newEdgeStyle={&quot;edgeStyle&quot;:&quot;elbowEdgeStyle&quot;,&quot;elbow&quot;:&quot;vertical&quot;,&quot;curved&quot;:0,&quot;rounded&quot;:0};" parent="mjIF9ZXAO5rnZLR19kHG-73" vertex="1">
          <mxGeometry x="15" y="1390" width="10" height="50" as="geometry" />
        </mxCell>
        <mxCell id="mjIF9ZXAO5rnZLR19kHG-74" value="ενδιαφερόμενα προϊόντα &lt;br&gt;premium" style="text;html=1;align=center;verticalAlign=middle;resizable=0;points=[];autosize=1;strokeColor=none;fillColor=none;" parent="1" vertex="1">
          <mxGeometry x="1365" y="-17.5" width="150" height="40" as="geometry" />
        </mxCell>
        <mxCell id="mjIF9ZXAO5rnZLR19kHG-75" value="calculate_premium_interest()" style="html=1;verticalAlign=bottom;startArrow=oval;startFill=1;endArrow=block;startSize=8;edgeStyle=elbowEdgeStyle;elbow=vertical;curved=0;rounded=0;" parent="1" source="mjIF9ZXAO5rnZLR19kHG-71" target="mjIF9ZXAO5rnZLR19kHG-73" edge="1">
          <mxGeometry x="0.0674" width="60" relative="1" as="geometry">
            <mxPoint x="900" y="1180" as="sourcePoint" />
            <mxPoint x="960" y="1180" as="targetPoint" />
            <Array as="points">
              <mxPoint x="1120" y="1210" />
            </Array>
            <mxPoint as="offset" />
          </mxGeometry>
        </mxCell>
        <mxCell id="mjIF9ZXAO5rnZLR19kHG-77" value="" style="shape=umlLifeline;perimeter=lifelinePerimeter;whiteSpace=wrap;html=1;container=1;dropTarget=0;collapsible=0;recursiveResize=0;outlineConnect=0;portConstraint=eastwest;newEdgeStyle={&quot;edgeStyle&quot;:&quot;elbowEdgeStyle&quot;,&quot;elbow&quot;:&quot;vertical&quot;,&quot;curved&quot;:0,&quot;rounded&quot;:0};participant=umlBoundary;" parent="1" vertex="1">
          <mxGeometry x="1560" y="40" width="50" height="1480" as="geometry" />
        </mxCell>
        <mxCell id="mjIF9ZXAO5rnZLR19kHG-81" value="" style="html=1;points=[];perimeter=orthogonalPerimeter;outlineConnect=0;targetShapes=umlLifeline;portConstraint=eastwest;newEdgeStyle={&quot;edgeStyle&quot;:&quot;elbowEdgeStyle&quot;,&quot;elbow&quot;:&quot;vertical&quot;,&quot;curved&quot;:0,&quot;rounded&quot;:0};" parent="mjIF9ZXAO5rnZLR19kHG-77" vertex="1">
          <mxGeometry x="20" y="1220" width="10" height="100" as="geometry" />
        </mxCell>
        <mxCell id="mjIF9ZXAO5rnZLR19kHG-79" value="αριθός premium,&lt;br&gt;&amp;nbsp;προσθήκη εναλλακτικού προϊόντος&lt;br&gt;,αύξηση stock" style="text;html=1;align=center;verticalAlign=middle;resizable=0;points=[];autosize=1;strokeColor=none;fillColor=none;" parent="1" vertex="1">
          <mxGeometry x="1500" y="-30" width="210" height="60" as="geometry" />
        </mxCell>
        <mxCell id="mjIF9ZXAO5rnZLR19kHG-80" value="display()" style="html=1;verticalAlign=bottom;startArrow=oval;startFill=1;endArrow=block;startSize=8;edgeStyle=elbowEdgeStyle;elbow=vertical;curved=0;rounded=0;" parent="1" target="mjIF9ZXAO5rnZLR19kHG-77" edge="1">
          <mxGeometry width="60" relative="1" as="geometry">
            <mxPoint x="1440" y="1260" as="sourcePoint" />
            <mxPoint x="1550" y="1260" as="targetPoint" />
            <Array as="points">
              <mxPoint x="1470" y="1260" />
              <mxPoint x="1550" y="1280" />
              <mxPoint x="1560" y="1260" />
              <mxPoint x="1560" y="1270" />
            </Array>
          </mxGeometry>
        </mxCell>
        <mxCell id="mjIF9ZXAO5rnZLR19kHG-82" value="select_option()" style="html=1;verticalAlign=bottom;startArrow=oval;startFill=1;endArrow=block;startSize=8;edgeStyle=elbowEdgeStyle;elbow=vertical;curved=0;rounded=0;" parent="1" source="mjIF9ZXAO5rnZLR19kHG-1" target="mjIF9ZXAO5rnZLR19kHG-81" edge="1">
          <mxGeometry x="-0.3333" width="60" relative="1" as="geometry">
            <mxPoint x="1450" y="1310" as="sourcePoint" />
            <mxPoint x="1510" y="1310" as="targetPoint" />
            <mxPoint as="offset" />
            <Array as="points">
              <mxPoint x="640" y="1280" />
              <mxPoint x="1540" y="1290" />
            </Array>
          </mxGeometry>
        </mxCell>
        <mxCell id="mjIF9ZXAO5rnZLR19kHG-83" value="increase_stock()" style="html=1;verticalAlign=bottom;endArrow=open;dashed=1;endSize=8;edgeStyle=elbowEdgeStyle;elbow=vertical;curved=0;rounded=0;" parent="1" source="mjIF9ZXAO5rnZLR19kHG-77" target="mjIF9ZXAO5rnZLR19kHG-38" edge="1">
          <mxGeometry x="-0.1394" relative="1" as="geometry">
            <mxPoint x="1380" y="1370" as="sourcePoint" />
            <mxPoint x="1300" y="1370" as="targetPoint" />
            <Array as="points">
              <mxPoint x="1090" y="1360" />
              <mxPoint x="1230" y="1370" />
              <mxPoint x="1490" y="1340" />
              <mxPoint x="1100" y="1330" />
            </Array>
            <mxPoint x="1" as="offset" />
          </mxGeometry>
        </mxCell>
        <mxCell id="mjIF9ZXAO5rnZLR19kHG-86" value="transition_in_stock()" style="html=1;align=left;spacingLeft=2;endArrow=block;rounded=0;edgeStyle=orthogonalEdgeStyle;curved=0;rounded=0;" parent="1" edge="1">
          <mxGeometry relative="1" as="geometry">
            <mxPoint x="1040" y="1380" as="sourcePoint" />
            <Array as="points">
              <mxPoint x="1070" y="1410" />
            </Array>
            <mxPoint x="1045" y="1410" as="targetPoint" />
          </mxGeometry>
        </mxCell>
        <mxCell id="mjIF9ZXAO5rnZLR19kHG-87" value="search_premium_users()" style="html=1;verticalAlign=bottom;startArrow=oval;startFill=1;endArrow=block;startSize=8;edgeStyle=elbowEdgeStyle;elbow=vertical;curved=0;rounded=0;" parent="1" source="mjIF9ZXAO5rnZLR19kHG-38" target="mjIF9ZXAO5rnZLR19kHG-73" edge="1">
          <mxGeometry width="60" relative="1" as="geometry">
            <mxPoint x="1135" y="1430" as="sourcePoint" />
            <mxPoint x="1430" y="1430" as="targetPoint" />
            <Array as="points">
              <mxPoint x="1250" y="1430" />
              <mxPoint x="1530" y="1390" />
            </Array>
          </mxGeometry>
        </mxCell>
        <mxCell id="mjIF9ZXAO5rnZLR19kHG-89" value="" style="shape=umlLifeline;perimeter=lifelinePerimeter;whiteSpace=wrap;html=1;container=1;dropTarget=0;collapsible=0;recursiveResize=0;outlineConnect=0;portConstraint=eastwest;newEdgeStyle={&quot;edgeStyle&quot;:&quot;elbowEdgeStyle&quot;,&quot;elbow&quot;:&quot;vertical&quot;,&quot;curved&quot;:0,&quot;rounded&quot;:0};participant=umlEntity;" parent="1" vertex="1">
          <mxGeometry x="1760" y="40" width="40" height="1480" as="geometry" />
        </mxCell>
        <mxCell id="mjIF9ZXAO5rnZLR19kHG-91" value="premium" style="text;html=1;align=center;verticalAlign=middle;resizable=0;points=[];autosize=1;strokeColor=none;fillColor=none;" parent="1" vertex="1">
          <mxGeometry x="1745" y="-7.5" width="70" height="30" as="geometry" />
        </mxCell>
        <mxCell id="mjIF9ZXAO5rnZLR19kHG-92" value="notify_premium()" style="html=1;verticalAlign=bottom;startArrow=oval;startFill=1;endArrow=block;startSize=8;edgeStyle=elbowEdgeStyle;elbow=vertical;curved=0;rounded=0;" parent="1" source="mjIF9ZXAO5rnZLR19kHG-73" target="mjIF9ZXAO5rnZLR19kHG-89" edge="1">
          <mxGeometry x="0.3333" width="60" relative="1" as="geometry">
            <mxPoint x="1590" y="1480" as="sourcePoint" />
            <mxPoint x="1650" y="1480" as="targetPoint" />
            <Array as="points">
              <mxPoint x="1630" y="1480" />
            </Array>
            <mxPoint as="offset" />
          </mxGeometry>
        </mxCell>
        <mxCell id="5QEGqwwI6IggPLn_ekYq-3" value="alternative" style="shape=umlFrame;whiteSpace=wrap;html=1;pointerEvents=0;fillColor=#f8cecc;strokeColor=#b85450;" parent="1" vertex="1">
          <mxGeometry x="1460" y="1290" width="480" height="50" as="geometry" />
        </mxCell>
        <mxCell id="5QEGqwwI6IggPLn_ekYq-6" value="Προσθήκη εναλλακτικού προϊόντος για το&amp;nbsp;out&lt;span style=&quot;border-color: var(--border-color); line-height: 12.84px; font-family: Arial, sans-serif;&quot; lang=&quot;EN-US&quot;&gt;&amp;nbsp;&lt;/span&gt;&lt;span style=&quot;border-color: var(--border-color); line-height: 12.84px; font-family: Arial, sans-serif;&quot; lang=&quot;EN-US&quot;&gt;of&lt;/span&gt;&lt;span style=&quot;border-color: var(--border-color); line-height: 12.84px; font-family: Arial, sans-serif;&quot; lang=&quot;EN-US&quot;&gt;&amp;nbsp;&lt;/span&gt;&lt;span style=&quot;border-color: var(--border-color); line-height: 12.84px; font-family: Arial, sans-serif;&quot; lang=&quot;EN-US&quot;&gt;stock&lt;/span&gt;&lt;span style=&quot;border-color: var(--border-color); line-height: 12.84px; font-family: Arial, sans-serif;&quot;&gt;&amp;nbsp;προϊόν&lt;/span&gt;" style="ellipse;whiteSpace=wrap;html=1;fillColor=#d5e8d4;strokeColor=#82b366;" parent="1" vertex="1">
          <mxGeometry x="2040" y="1290" width="140" height="70" as="geometry" />
        </mxCell>
        <mxCell id="5QEGqwwI6IggPLn_ekYq-8" value="" style="endArrow=classic;html=1;rounded=0;entryX=0;entryY=0.5;entryDx=0;entryDy=0;fillColor=#d5e8d4;strokeColor=#82b366;" parent="1" source="mjIF9ZXAO5rnZLR19kHG-81" target="5QEGqwwI6IggPLn_ekYq-6" edge="1">
          <mxGeometry width="50" height="50" relative="1" as="geometry">
            <mxPoint x="1660" y="1400" as="sourcePoint" />
            <mxPoint x="1710" y="1350" as="targetPoint" />
            <Array as="points">
              <mxPoint x="1650" y="1330" />
            </Array>
          </mxGeometry>
        </mxCell>
        <mxCell id="5QEGqwwI6IggPLn_ekYq-9" value="alternative product" style="text;html=1;align=center;verticalAlign=middle;resizable=0;points=[];autosize=1;strokeColor=none;fillColor=none;" parent="1" vertex="1">
          <mxGeometry x="1450" y="1310" width="120" height="30" as="geometry" />
        </mxCell>
        <mxCell id="5QEGqwwI6IggPLn_ekYq-10" value="increase stock" style="text;html=1;align=center;verticalAlign=middle;resizable=0;points=[];autosize=1;strokeColor=none;fillColor=none;" parent="1" vertex="1">
          <mxGeometry x="1450" y="1340" width="100" height="30" as="geometry" />
        </mxCell>
        <mxCell id="2B_nDuqq9ND4ZhAVYhM--1" value=":main_screen" style="rounded=0;whiteSpace=wrap;html=1;" parent="1" vertex="1">
          <mxGeometry x="195" y="30" width="120" height="60" as="geometry" />
        </mxCell>
        <mxCell id="2B_nDuqq9ND4ZhAVYhM--2" value=":choose_instock_&lt;br&gt;outofstock_screen" style="whiteSpace=wrap;html=1;" parent="1" vertex="1">
          <mxGeometry x="345" y="25" width="120" height="60" as="geometry" />
        </mxCell>
        <mxCell id="2B_nDuqq9ND4ZhAVYhM--4" value=":category_products_&lt;br&gt;screen" style="whiteSpace=wrap;html=1;" parent="1" vertex="1">
          <mxGeometry x="625" y="25" width="120" height="60" as="geometry" />
        </mxCell>
        <mxCell id="2B_nDuqq9ND4ZhAVYhM--5" value=":category_screen" style="whiteSpace=wrap;html=1;" parent="1" vertex="1">
          <mxGeometry x="485" y="25" width="120" height="60" as="geometry" />
        </mxCell>
        <mxCell id="2B_nDuqq9ND4ZhAVYhM--6" value=":product_management_&lt;br&gt;screen" style="whiteSpace=wrap;html=1;" parent="1" vertex="1">
          <mxGeometry x="777.5" y="25" width="132.5" height="55" as="geometry" />
        </mxCell>
        <mxCell id="2B_nDuqq9ND4ZhAVYhM--7" value=":inventory" style="whiteSpace=wrap;html=1;" parent="1" vertex="1">
          <mxGeometry x="980" y="22.5" width="120" height="60" as="geometry" />
        </mxCell>
        <mxCell id="2B_nDuqq9ND4ZhAVYhM--8" value=":orders" style="whiteSpace=wrap;html=1;" parent="1" vertex="1">
          <mxGeometry x="1115" y="23" width="120" height="60" as="geometry" />
        </mxCell>
        <mxCell id="2B_nDuqq9ND4ZhAVYhM--9" value=":number_of_sales_&lt;br&gt;screen" style="whiteSpace=wrap;html=1;" parent="1" vertex="1">
          <mxGeometry x="1240" y="23" width="120" height="60" as="geometry" />
        </mxCell>
        <mxCell id="2B_nDuqq9ND4ZhAVYhM--10" value=":premium_interest" style="rounded=0;whiteSpace=wrap;html=1;" parent="1" vertex="1">
          <mxGeometry x="1380" y="23" width="120" height="60" as="geometry" />
        </mxCell>
        <mxCell id="2B_nDuqq9ND4ZhAVYhM--11" value=":increase_stock_add_&lt;br&gt;alt_product_screen" style="whiteSpace=wrap;html=1;" parent="1" vertex="1">
          <mxGeometry x="1525" y="22.5" width="120" height="60" as="geometry" />
        </mxCell>
        <mxCell id="2B_nDuqq9ND4ZhAVYhM--12" value=":premium" style="whiteSpace=wrap;html=1;" parent="1" vertex="1">
          <mxGeometry x="1725" y="23" width="110" height="60" as="geometry" />
        </mxCell>
      </root>
    </mxGraphModel>
  </diagram>
</mxfile>
